<svg data-v-0dd9719b="" version="1.0" xmlns="http://www.w3.org/2000/svg" xmlns:xlink="http://www.w3.org/1999/xlink" width="100%" height="100%" viewBox="0 0 340.000000 250.000000" preserveAspectRatio="xMidYMid meet" color-interpolation-filters="sRGB" style="margin: auto;"> <rect data-v-0dd9719b="" x="0" y="0" width="100%" height="100%" fill="#fff" fill-opacity="1" class="background"></rect> <rect data-v-0dd9719b="" x="0" y="0" width="100%" height="100%" fill="url(#watermark)" fill-opacity="1" class="watermarklayer"></rect> <g data-v-0dd9719b="" fill="#138f2e" class="icon-text-wrapper icon-svg-group iconsvg" transform="translate(46.529998779296875,94.78304100036621)"><g class="iconsvg-imagesvg" transform="translate(0,0)"><g><rect fill="#138f2e" fill-opacity="0" stroke-width="2" x="0" y="0" width="60" height="60.43391551338611" class="image-rect"></rect> <svg x="0" y="0" width="60" height="60.43391551338611" filtersec="colorsb6981851020" class="image-svg-svg primary" style="overflow: visible;"><svg version="1.1" id="图层_1" xmlns="http://www.w3.org/2000/svg" xmlns:xlink="http://www.w3.org/1999/xlink" x="0px" y="0px" viewBox="0.5250015258789062 0.690000057220459 104.46250915527344 105.2175064086914" enable-background="new 0 0 106 107" xml:space="preserve">
<g>
	<path fill="#8DC21F" d="M82.43,23.94c0.01,0.01,0.03,0.03,0.04,0.04c16.38,16.38,16.38,43.03,0,59.41
		c-16.38,16.38-43.03,16.38-59.41,0c-16.38-16.38-16.38-43.03,0-59.41l0,0l-7.25-7.25l0,0c-20.38,20.38-20.38,53.53,0,73.9
		c20.38,20.37,53.53,20.37,73.9,0c20.37-20.38,20.37-53.52,0-73.9c-0.01-0.01-0.03-0.02-0.05-0.04L82.43,23.94z"></path>
	<path fill="#138F2E" d="M72.15,34.22c0.01,0.02,0.03,0.03,0.04,0.04c10.71,10.71,10.71,28.14,0,38.85
		c-10.71,10.71-28.14,10.71-38.85,0c-10.71-10.71-10.71-28.13,0-38.85l0,0l-7.25-7.25l0,0c-14.71,14.71-14.71,38.64,0,53.35
		c14.71,14.71,38.63,14.71,53.34,0c14.71-14.71,14.71-38.63,0-53.35c-0.01-0.01-0.02-0.02-0.04-0.04L72.15,34.22z"></path>
	<path fill="#006E35" d="M75.48,53.68c0-6.06-2.36-11.77-6.65-16.05l-7.25,7.24c4.86,4.86,4.86,12.76,0,17.62
		c-4.86,4.86-12.77,4.86-17.62,0c-4.86-4.86-4.86-12.76,0-17.62c0.01-0.02,0.02-0.03,0.04-0.04l-7.25-7.24
		c-0.01,0.01-0.03,0.02-0.04,0.04c-8.86,8.85-8.86,23.26,0,32.12c4.29,4.29,9.99,6.65,16.05,6.65c6.07,0,11.77-2.37,16.07-6.66
		C73.12,65.46,75.48,59.75,75.48,53.68z"></path>
	<path fill="#006E35" d="M53.18,0.69c-13.01,0-24.9,4.74-34.08,12.58l34.02,34.03l34.09-34.08C78.04,5.41,66.16,0.69,53.18,0.69z"></path>
</g>
</svg></svg> <!----></g></g> <g transform="translate(67,8.096960067749023)"><g data-gra="path-name" fill-rule="" class="tp-name iconsvg-namesvg"><g transform="scale(1)"><g><path d="M29.88-24.07L21.03-24.07Q21.19-24.87 21.19-26.26L21.19-26.26Q21.19-27.06 21.08-27.83 20.97-28.6 20.71-29.22 20.44-29.83 19.91-30.18 19.37-30.52 18.52-30.52L18.52-30.52Q17.56-30.52 16.76-30.1 15.96-29.67 15.34-29 14.73-28.34 14.38-27.46 14.03-26.58 14.03-25.62L14.03-25.62Q14.03-24.23 14.76-23.48 15.48-22.73 16.65-22.25 17.82-21.77 19.32-21.45 20.81-21.13 22.41-20.71L22.41-20.71Q23.75-20.33 25.08-19.75 26.42-19.16 27.46-18.17 28.5-17.18 29.14-15.61 29.78-14.03 29.78-11.69L29.78-11.69Q29.78-8.32 28.44-6.03 27.11-3.74 24.76-2.29 22.41-0.85 19.18-0.21 15.96 0.43 12.17 0.43L12.17 0.43Q8.32 0.43 5.9-0.08 3.47-0.59 2.08-1.17L2.08-1.17Q0.43-1.87-0.37-2.77L-0.37-2.77 1.44-10.09 10.83-10.09Q10.78-9.61 10.73-8.78 10.67-7.95 10.67-7.47L10.67-7.47Q10.67-6.83 10.83-6.14 10.99-5.44 11.34-4.86 11.69-4.27 12.33-3.9 12.97-3.52 13.93-3.52L13.93-3.52Q15-3.52 15.82-4 16.65-4.48 17.21-5.2 17.77-5.92 18.06-6.8 18.36-7.68 18.36-8.54L18.36-8.54Q18.36-9.71 17.8-10.51 17.24-11.31 16.28-11.87 15.32-12.43 14.06-12.83 12.81-13.23 11.47-13.66L11.47-13.66Q10.19-14.03 8.78-14.57 7.36-15.1 6.19-16.06 5.02-17.02 4.24-18.49 3.47-19.96 3.47-22.25L3.47-22.25Q3.47-25.67 5.2-27.99 6.94-30.31 9.58-31.75 12.22-33.19 15.37-33.81 18.52-34.42 21.35-34.42L21.35-34.42Q25.08-34.42 27.78-33.54 30.47-32.66 31.86-31.49L31.86-31.49 29.88-24.07ZM47.65-6.35L51.23-22.95 62.12-22.95 57.21 0 48.56 0 47.6-3.42 47.28-3.42Q45.89-1.76 43.52-0.67 41.14 0.43 38.74 0.43L38.74 0.43Q35.54 0.43 33.73-1.2 31.91-2.83 31.91-5.44L31.91-5.44Q31.91-6.78 32.37-8.78 32.82-10.78 33.19-12.54L33.19-12.54 35.43-22.95 46.27-22.95 43.6-10.46Q43.49-10.03 43.39-9.45 43.28-8.86 43.17-8.3 43.07-7.74 42.99-7.23 42.91-6.72 42.91-6.4L42.91-6.4Q42.91-5.6 43.25-5.04 43.6-4.48 44.51-4.48L44.51-4.48Q45.47-4.48 46.32-5.12 47.17-5.76 47.65-6.35L47.65-6.35ZM62.01 0L66.87-22.95 75.56-22.95 76.37-18.94 76.74-18.94Q77.97-20.87 79.89-22.2 81.81-23.53 84.96-23.53L84.96-23.53Q85.17-23.53 85.62-23.51 86.08-23.48 86.64-23.35 87.2-23.21 87.81-22.97 88.43-22.73 89.01-22.31L89.01-22.31 86.66-11.31 80.85-11.31Q80.74-14.62 80.26-15.93 79.78-17.24 78.71-17.24L78.71-17.24Q78.18-17.24 77.57-17 76.95-16.76 76.31-15.96L76.31-15.96 72.9 0 62.01 0ZM114.95-10.73L99.95-10.73Q99.74-9.55 99.66-8.49 99.58-7.42 99.58-6.56L99.58-6.56Q99.58-6.08 99.63-5.5 99.69-4.91 99.87-4.4 100.06-3.9 100.41-3.55 100.75-3.2 101.39-3.2L101.39-3.2Q101.87-3.2 102.49-3.52 103.1-3.84 103.71-4.43 104.33-5.02 104.89-5.87 105.45-6.72 105.77-7.79L105.77-7.79 114.52-7.79 113.13-2.08Q112.07-1.39 110.68-0.91 109.29-0.43 107.74-0.13 106.2 0.16 104.6 0.29 102.99 0.43 101.55 0.43L101.55 0.43Q98.89 0.43 96.59-0.05 94.3-0.53 92.59-1.71 90.88-2.88 89.89-4.83 88.91-6.78 88.91-9.66L88.91-9.66Q88.91-12.27 89.73-14.78 90.56-17.29 92.51-19.24 94.46-21.19 97.74-22.36 101.02-23.53 105.93-23.53L105.93-23.53Q111.27-23.53 113.96-21.88 116.66-20.23 116.66-16.7L116.66-16.7Q116.66-15.26 116.23-13.58 115.8-11.9 114.95-10.73L114.95-10.73ZM107.05-17.08L107.05-17.08Q107.05-18.73 106.52-19.32 105.98-19.91 105.24-19.91L105.24-19.91Q104.38-19.91 103.66-19.34 102.94-18.78 102.35-17.85 101.77-16.92 101.29-15.72 100.81-14.52 100.49-13.18L100.49-13.18 106.57-13.18Q106.68-13.82 106.78-14.52L106.78-14.52Q106.89-15.1 106.97-15.8 107.05-16.49 107.05-17.08ZM117.51 0L124.71-33.89 147.18-33.89 146.33-29.83 135.39-29.83 133.31-20.07 142.43-20.07 141.58-15.96 132.45-15.96 129.04 0 117.51 0ZM165.38-34.42L165.38-34.42Q169.97-34.42 172.82-33.25 175.68-32.07 177.33-29.62L177.33-29.62Q178.4-27.96 178.99-25.88 179.57-23.8 179.57-21.08L179.57-21.08Q179.57-18.73 179.15-16.38 178.72-14.03 177.95-11.87 177.17-9.71 176.08-7.82 174.98-5.92 173.65-4.48L173.65-4.48Q170.45-0.96 165.48 0L165.48 0Q166.87 1.39 168.69 2.27 170.5 3.15 172.42 3.58L172.42 3.58Q170.02 5.34 168.15 6.72L168.15 6.72Q167.35 7.31 166.58 7.87 165.8 8.43 165.22 8.89 164.63 9.34 164.23 9.58 163.83 9.82 163.83 9.82L163.83 9.82Q162.12 8.75 160.87 7.47 159.61 6.19 158.73 4.88 157.85 3.58 157.29 2.37 156.73 1.17 156.41 0.27L156.41 0.27Q153.26 0 151.21-0.96 149.16-1.92 147.82-3.63L147.82-3.63Q146.65-5.12 145.98-7.42 145.31-9.71 145.31-13.18L145.31-13.18Q145.31-19.1 147.42-23.77 149.53-28.44 153.42-31.17L153.42-31.17Q155.77-32.82 158.65-33.62 161.54-34.42 165.38-34.42ZM159.35-3.31L159.35-3.31Q160.58-3.31 161.67-4.4 162.76-5.5 163.7-7.34 164.63-9.18 165.4-11.53 166.18-13.87 166.71-16.38 167.25-18.89 167.54-21.37 167.83-23.85 167.83-25.88L167.83-25.88Q167.83-28.66 167.27-29.7 166.71-30.74 165.64-30.74L165.64-30.74Q164.42-30.74 163.3-29.67 162.18-28.6 161.19-26.82 160.2-25.03 159.43-22.71 158.65-20.39 158.09-17.93 157.53-15.48 157.24-13.07 156.95-10.67 156.95-8.65L156.95-8.65Q156.95-5.6 157.61-4.46 158.28-3.31 159.35-3.31Z" transform="translate(0.3700000047683716, 34.41999816894531)"></path></g> <!----> <!----> <!----> <!----> <!----> <!----> <!----></g></g> <!----></g></g><defs v-gra="od"></defs></svg>